<?xml version="1.0" encoding="UTF-8"?>
<svg width="700pt" height="700pt" version="1.1" viewBox="0 0 700 700" xmlns="http://www.w3.org/2000/svg" xmlns:xlink="http://www.w3.org/1999/xlink">
 <defs>
  <symbol id="v" overflow="visible">
   <path d="m18.953-1.125c-0.98047 0.5-2 0.88281-3.0625 1.1406-1.0547 0.25781-2.1562 0.39062-3.3125 0.39062-3.4375 0-6.1641-0.95703-8.1719-2.875-2-1.9258-3-4.5312-3-7.8125 0-3.3008 1-5.9102 3-7.8281 2.0078-1.9141 4.7344-2.875 8.1719-2.875 1.1562 0 2.2578 0.13281 3.3125 0.39062 1.0625 0.25 2.082 0.63281 3.0625 1.1406v4.2656c-0.99219-0.67578-1.9648-1.1719-2.9219-1.4844-0.96094-0.3125-1.9648-0.46875-3.0156-0.46875-1.9062 0-3.4023 0.60938-4.4844 1.8281-1.0859 1.2188-1.625 2.8984-1.625 5.0312 0 2.125 0.53906 3.7969 1.625 5.0156 1.082 1.2109 2.5781 1.8125 4.4844 1.8125 1.0508 0 2.0547-0.15625 3.0156-0.46875 0.95703-0.3125 1.9297-0.80469 2.9219-1.4844z"/>
  </symbol>
  <symbol id="d" overflow="visible">
   <path d="m13.859-11.25c-0.42969-0.20703-0.85547-0.35938-1.2812-0.45312-0.42969-0.09375-0.85938-0.14062-1.2969-0.14062-1.2734 0-2.25 0.40625-2.9375 1.2188s-1.0312 1.9805-1.0312 3.5v7.125h-4.9375v-15.469h4.9375v2.5469c0.63281-1.0078 1.3633-1.75 2.1875-2.2188 0.83203-0.46875 1.8203-0.70312 2.9688-0.70312 0.16406 0 0.34375 0.011719 0.53125 0.03125 0.19531 0.011719 0.47656 0.039062 0.84375 0.078125z"/>
  </symbol>
  <symbol id="a" overflow="visible">
   <path d="m17.812-7.7812v1.4219h-11.562c0.125 1.1562 0.54688 2.0273 1.2656 2.6094 0.71875 0.57422 1.7188 0.85938 3 0.85938 1.0391 0 2.1094-0.14844 3.2031-0.45312 1.0938-0.3125 2.2109-0.78125 3.3594-1.4062v3.8125c-1.168 0.4375-2.3359 0.77344-3.5 1-1.168 0.22656-2.3398 0.34375-3.5156 0.34375-2.793 0-4.9648-0.70703-6.5156-2.125-1.5547-1.4258-2.3281-3.4258-2.3281-6 0-2.5195 0.75781-4.5039 2.2812-5.9531 1.5195-1.4453 3.6172-2.1719 6.2969-2.1719 2.4258 0 4.3672 0.73438 5.8281 2.2031 1.457 1.4609 2.1875 3.4141 2.1875 5.8594zm-5.0781-1.6406c0-0.9375-0.27734-1.6914-0.82812-2.2656-0.54297-0.57031-1.2578-0.85938-2.1406-0.85938-0.96094 0-1.7422 0.27344-2.3438 0.8125-0.59375 0.53125-0.96484 1.3047-1.1094 2.3125z"/>
  </symbol>
  <symbol id="b" overflow="visible">
   <path d="m9.3125-6.9531c-1.0312 0-1.8086 0.17969-2.3281 0.53125-0.52344 0.34375-0.78125 0.85547-0.78125 1.5312 0 0.625 0.20703 1.1172 0.625 1.4688 0.41406 0.35547 1 0.53125 1.75 0.53125 0.92578 0 1.707-0.33203 2.3438-1 0.63281-0.66406 0.95312-1.5 0.95312-2.5v-0.5625zm7.5469-1.875v8.8281h-4.9844v-2.2969c-0.66797 0.9375-1.418 1.625-2.25 2.0625-0.82422 0.42578-1.8281 0.64062-3.0156 0.64062-1.5938 0-2.8906-0.46875-3.8906-1.4062s-1.5-2.1484-1.5-3.6406c0-1.8125 0.61719-3.1406 1.8594-3.9844 1.25-0.85156 3.2109-1.2812 5.8906-1.2812h2.9062v-0.375c0-0.78906-0.30859-1.3633-0.92188-1.7188-0.61719-0.36328-1.5781-0.54688-2.8906-0.54688-1.0625 0-2.0469 0.10547-2.9531 0.3125-0.90625 0.21094-1.7578 0.52734-2.5469 0.95312v-3.7656c1.0625-0.25781 2.125-0.45703 3.1875-0.59375 1.0703-0.13281 2.1445-0.20312 3.2188-0.20312 2.7812 0 4.7891 0.55469 6.0312 1.6562 1.2383 1.1055 1.8594 2.8906 1.8594 5.3594z"/>
  </symbol>
  <symbol id="c" overflow="visible">
   <path d="m7.7812-19.859v4.3906h5.0938v3.5312h-5.0938v6.5625c0 0.71875 0.14062 1.2109 0.42188 1.4688 0.28125 0.25 0.84766 0.375 1.7031 0.375h2.5312v3.5312h-4.2344c-1.9492 0-3.3359-0.40625-4.1562-1.2188-0.8125-0.8125-1.2188-2.1953-1.2188-4.1562v-6.5625h-2.4531v-3.5312h2.4531v-4.3906z"/>
  </symbol>
  <symbol id="k" overflow="visible">
   <path d="m12.891-13.203v-8.2812h4.9844v21.484h-4.9844v-2.2344c-0.67969 0.90625-1.4297 1.5742-2.25 2-0.8125 0.42578-1.7617 0.64062-2.8438 0.64062-1.9062 0-3.4766-0.75391-4.7031-2.2656-1.2188-1.5195-1.8281-3.4727-1.8281-5.8594 0-2.3828 0.60938-4.332 1.8281-5.8438 1.2266-1.5195 2.7969-2.2812 4.7031-2.2812 1.0703 0 2.0195 0.21484 2.8438 0.64062 0.82031 0.42969 1.5703 1.0938 2.25 2zm-3.25 10.016c1.0625 0 1.8672-0.38281 2.4219-1.1562 0.55078-0.78125 0.82812-1.9062 0.82812-3.375s-0.27734-2.5859-0.82812-3.3594c-0.55469-0.78125-1.3594-1.1719-2.4219-1.1719-1.0547 0-1.8594 0.39062-2.4219 1.1719-0.55469 0.77344-0.82812 1.8906-0.82812 3.3594s0.27344 2.5938 0.82812 3.375c0.5625 0.77344 1.3672 1.1562 2.4219 1.1562z"/>
  </symbol>
  <symbol id="j" overflow="visible">
   <path d="m10.609-3.1875c1.0508 0 1.8516-0.38281 2.4062-1.1562 0.5625-0.78125 0.84375-1.9062 0.84375-3.375s-0.28125-2.5859-0.84375-3.3594c-0.55469-0.78125-1.3555-1.1719-2.4062-1.1719-1.0625 0-1.8828 0.39062-2.4531 1.1719-0.5625 0.77344-0.84375 1.8906-0.84375 3.3594 0 1.4609 0.28125 2.5781 0.84375 3.3594 0.57031 0.78125 1.3906 1.1719 2.4531 1.1719zm-3.2969-10.016c0.6875-0.90625 1.4414-1.5703 2.2656-2 0.83203-0.42578 1.7852-0.64062 2.8594-0.64062 1.9062 0 3.4688 0.76172 4.6875 2.2812 1.2266 1.5117 1.8438 3.4609 1.8438 5.8438 0 2.3867-0.61719 4.3398-1.8438 5.8594-1.2188 1.5117-2.7812 2.2656-4.6875 2.2656-1.0742 0-2.0273-0.21484-2.8594-0.64062-0.82422-0.4375-1.5781-1.1016-2.2656-2v2.2344h-4.9375v-21.484h4.9375z"/>
  </symbol>
  <symbol id="g" overflow="visible">
   <path d="m0.34375-15.469h4.9375l4.1719 10.5 3.5312-10.5h4.9375l-6.5 16.938c-0.65625 1.7188-1.4219 2.9219-2.2969 3.6094-0.86719 0.6875-2.0117 1.0312-3.4375 1.0312h-2.8594v-3.25h1.5469c0.84375 0 1.4531-0.13672 1.8281-0.40625 0.38281-0.26172 0.67969-0.74219 0.89062-1.4375l0.14062-0.42188z"/>
  </symbol>
  <symbol id="f" overflow="visible">
   <path d="m2.5938-20.609h5.9375l7.5 14.141v-14.141h5.0469v20.609h-5.9375l-7.5-14.141v14.141h-5.0469z"/>
  </symbol>
  <symbol id="i" overflow="visible">
   <path d="m2.375-15.469h4.9375v15.188c0 2.0703-0.49609 3.6562-1.4844 4.75-0.99219 1.0938-2.4336 1.6406-4.3281 1.6406h-2.4375v-3.25h0.85938c0.9375 0 1.5781-0.21484 1.9219-0.64062 0.35156-0.41797 0.53125-1.25 0.53125-2.5zm0-6.0156h4.9375v4.0312h-4.9375z"/>
  </symbol>
  <symbol id="u" overflow="visible">
   <path d="m7.9062-16.594v12.578h1.9062c2.1758 0 3.8359-0.53516 4.9844-1.6094 1.1445-1.082 1.7188-2.6484 1.7188-4.7031 0-2.0391-0.57422-3.5938-1.7188-4.6562-1.1367-1.0703-2.7969-1.6094-4.9844-1.6094zm-5.3125-4.0156h5.6094c3.125 0 5.4531 0.22656 6.9844 0.67188 1.5391 0.4375 2.8594 1.1953 3.9531 2.2656 0.96875 0.92969 1.6875 2 2.1562 3.2188 0.46875 1.2109 0.70312 2.5859 0.70312 4.125 0 1.5547-0.23438 2.9375-0.70312 4.1562s-1.1875 2.2969-2.1562 3.2344c-1.1055 1.0625-2.4336 1.8203-3.9844 2.2656-1.543 0.44922-3.8594 0.67188-6.9531 0.67188h-5.6094z"/>
  </symbol>
  <symbol id="t" overflow="visible">
   <path d="m14.453-14.984v3.75c-1.0547-0.4375-2.0742-0.76562-3.0625-0.98438-0.98047-0.21875-1.9062-0.32812-2.7812-0.32812-0.94922 0-1.6523 0.12109-2.1094 0.35938-0.44922 0.23047-0.67188 0.58984-0.67188 1.0781 0 0.39844 0.17188 0.69922 0.51562 0.90625 0.34375 0.21094 0.96094 0.36719 1.8594 0.46875l0.875 0.125c2.5312 0.32422 4.2344 0.85547 5.1094 1.5938 0.875 0.73047 1.3125 1.8828 1.3125 3.4531 0 1.6562-0.60938 2.9023-1.8281 3.7344-1.2188 0.82422-3.0312 1.2344-5.4375 1.2344-1.0234 0-2.0781-0.085938-3.1719-0.25-1.0938-0.15625-2.2148-0.39453-3.3594-0.71875v-3.7656c0.97656 0.48047 1.9844 0.83984 3.0156 1.0781 1.0391 0.24219 2.0977 0.35938 3.1719 0.35938 0.95703 0 1.6797-0.12891 2.1719-0.39062 0.48828-0.26953 0.73438-0.66406 0.73438-1.1875 0-0.44531-0.16797-0.77344-0.5-0.98438-0.33594-0.21875-1.0078-0.39062-2.0156-0.51562l-0.85938-0.10938c-2.2109-0.26953-3.7578-0.78125-4.6406-1.5312-0.875-0.75-1.3125-1.8789-1.3125-3.3906 0-1.6445 0.55469-2.8633 1.6719-3.6562 1.125-0.78906 2.8477-1.1875 5.1719-1.1875 0.91406 0 1.875 0.074219 2.875 0.21875 1 0.13672 2.0859 0.35156 3.2656 0.64062z"/>
  </symbol>
  <symbol id="s" overflow="visible">
   <path d="m2.375-15.469h4.9375v15.469h-4.9375zm0-6.0156h4.9375v4.0312h-4.9375z"/>
  </symbol>
  <symbol id="r" overflow="visible">
   <path d="m12.891-2.625c-0.67969 0.90625-1.4297 1.5742-2.25 2-0.8125 0.41797-1.7617 0.625-2.8438 0.625-1.8867 0-3.4492-0.73828-4.6875-2.2188-1.2305-1.4883-1.8438-3.3828-1.8438-5.6875 0-2.3125 0.61328-4.207 1.8438-5.6875 1.2383-1.4766 2.8008-2.2188 4.6875-2.2188 1.082 0 2.0312 0.21484 2.8438 0.64062 0.82031 0.41797 1.5703 1.0859 2.25 2v-2.2969h4.9844v13.906c0 2.4883-0.78906 4.3906-2.3594 5.7031-1.5742 1.3125-3.8516 1.9688-6.8281 1.9688-0.96875 0-1.9062-0.078125-2.8125-0.23438-0.89844-0.14844-1.8047-0.37109-2.7188-0.67188v-3.8438c0.86328 0.48828 1.7109 0.85156 2.5469 1.0938 0.83203 0.25 1.6641 0.375 2.5 0.375 1.625 0 2.8125-0.35547 3.5625-1.0625 0.75-0.71094 1.125-1.8164 1.125-3.3281zm-3.25-9.625c-1.0234 0-1.8203 0.38281-2.3906 1.1406-0.57422 0.75-0.85938 1.8203-0.85938 3.2031 0 1.418 0.27344 2.4922 0.82812 3.2188 0.55078 0.73047 1.3594 1.0938 2.4219 1.0938 1.0312 0 1.8281-0.375 2.3906-1.125 0.57031-0.75781 0.85938-1.8203 0.85938-3.1875 0-1.3828-0.28906-2.4531-0.85938-3.2031-0.5625-0.75781-1.3594-1.1406-2.3906-1.1406z"/>
  </symbol>
  <symbol id="h" overflow="visible">
   <path d="m17.922-9.4219v9.4219h-4.9688v-7.2031c0-1.332-0.03125-2.2539-0.09375-2.7656-0.054687-0.50781-0.15625-0.88281-0.3125-1.125-0.1875-0.32031-0.44922-0.57031-0.78125-0.75-0.33594-0.17578-0.71094-0.26562-1.125-0.26562-1.0312 0-1.8438 0.40234-2.4375 1.2031-0.59375 0.79297-0.89062 1.8906-0.89062 3.2969v7.6094h-4.9375v-15.469h4.9375v2.2656c0.75-0.90625 1.5391-1.5703 2.375-2 0.84375-0.42578 1.7695-0.64062 2.7812-0.64062 1.7891 0 3.1445 0.55469 4.0625 1.6562 0.92578 1.0938 1.3906 2.6836 1.3906 4.7656z"/>
  </symbol>
  <symbol id="q" overflow="visible">
   <path d="m12.547-21.484v3.25h-2.7344c-0.69922 0-1.1875 0.125-1.4688 0.375-0.27344 0.25-0.40625 0.6875-0.40625 1.3125v1.0781h4.2344v3.5312h-4.2344v11.938h-4.9375v-11.938h-2.4688v-3.5312h2.4688v-1.0781c0-1.6875 0.46875-2.9297 1.4062-3.7344 0.9375-0.80078 2.3906-1.2031 4.3594-1.2031z"/>
  </symbol>
  <symbol id="e" overflow="visible">
   <path d="m9.7344-12.297c-1.0938 0-1.9336 0.39844-2.5156 1.1875-0.57422 0.78125-0.85938 1.9141-0.85938 3.3906 0 1.4805 0.28516 2.6172 0.85938 3.4062 0.58203 0.78125 1.4219 1.1719 2.5156 1.1719 1.0703 0 1.8945-0.39062 2.4688-1.1719 0.57031-0.78906 0.85938-1.9258 0.85938-3.4062 0-1.4766-0.28906-2.6094-0.85938-3.3906-0.57422-0.78906-1.3984-1.1875-2.4688-1.1875zm0-3.5469c2.6562 0 4.7344 0.71875 6.2344 2.1562s2.25 3.4297 2.25 5.9688c0 2.543-0.75 4.5312-2.25 5.9688s-3.5781 2.1562-6.2344 2.1562c-2.668 0-4.7578-0.71875-6.2656-2.1562-1.5-1.4375-2.25-3.4258-2.25-5.9688 0-2.5391 0.75-4.5312 2.25-5.9688 1.5078-1.4375 3.5977-2.1562 6.2656-2.1562z"/>
  </symbol>
  <symbol id="p" overflow="visible">
   <path d="m16.703-12.891c0.625-0.95703 1.3672-1.6875 2.2344-2.1875 0.86328-0.50781 1.8125-0.76562 2.8438-0.76562 1.7695 0 3.1172 0.55469 4.0469 1.6562 0.9375 1.0938 1.4062 2.6836 1.4062 4.7656v9.4219h-4.9688v-8.0625c0.007813-0.125 0.015625-0.25 0.015625-0.375v-0.54688c0-1.1016-0.16406-1.8984-0.48438-2.3906-0.3125-0.48828-0.82812-0.73438-1.5469-0.73438-0.94922 0-1.6797 0.38672-2.1875 1.1562-0.51172 0.77344-0.77344 1.8906-0.78125 3.3594v7.5938h-4.9844v-8.0625c0-1.7188-0.14844-2.8203-0.4375-3.3125-0.29297-0.48828-0.82031-0.73438-1.5781-0.73438-0.94922 0-1.6836 0.39062-2.2031 1.1719-0.51172 0.77344-0.76562 1.8828-0.76562 3.3281v7.6094h-4.9688v-15.469h4.9688v2.2656c0.61328-0.875 1.3125-1.5312 2.0938-1.9688 0.78906-0.44531 1.6602-0.67188 2.6094-0.67188 1.0625 0 2.0039 0.26172 2.8281 0.78125 0.82031 0.51172 1.4414 1.2344 1.8594 2.1719z"/>
  </symbol>
  <symbol id="o" overflow="visible">
   <path d="m17.922-9.4219v9.4219h-4.9688v-7.1875c0-1.3438-0.03125-2.2695-0.09375-2.7812-0.054687-0.50781-0.15625-0.88281-0.3125-1.125-0.1875-0.32031-0.44922-0.57031-0.78125-0.75-0.33594-0.17578-0.71094-0.26562-1.125-0.26562-1.0312 0-1.8438 0.40234-2.4375 1.2031-0.59375 0.79297-0.89062 1.8906-0.89062 3.2969v7.6094h-4.9375v-21.484h4.9375v8.2812c0.75-0.90625 1.5391-1.5703 2.375-2 0.84375-0.42578 1.7695-0.64062 2.7812-0.64062 1.7891 0 3.1445 0.55469 4.0625 1.6562 0.92578 1.0938 1.3906 2.6836 1.3906 4.7656z"/>
  </symbol>
  <symbol id="n" overflow="visible">
   <path d="m2.2031-6.0156v-9.4531h4.9844v1.5469c0 0.84375-0.007812 1.9023-0.015625 3.1719-0.011719 1.2617-0.015625 2.1016-0.015625 2.5156 0 1.25 0.03125 2.1523 0.09375 2.7031 0.0625 0.54297 0.17188 0.9375 0.32812 1.1875 0.20703 0.32422 0.47266 0.57422 0.79688 0.75 0.32031 0.16797 0.69531 0.25 1.125 0.25 1.0312 0 1.8359-0.39453 2.4219-1.1875 0.59375-0.78906 0.89062-1.8906 0.89062-3.2969v-7.6406h4.9531v15.469h-4.9531v-2.2344c-0.74219 0.89844-1.5273 1.5625-2.3594 2-0.83594 0.42578-1.7578 0.64062-2.7656 0.64062-1.7812 0-3.1406-0.54688-4.0781-1.6406-0.9375-1.1016-1.4062-2.6953-1.4062-4.7812z"/>
  </symbol>
  <symbol id="m" overflow="visible">
   <path d="m2.5938-20.609h8.8281c2.625 0 4.6328 0.58594 6.0312 1.75 1.4062 1.1562 2.1094 2.8125 2.1094 4.9688 0 2.168-0.70312 3.8359-2.1094 5-1.3984 1.1562-3.4062 1.7344-6.0312 1.7344h-3.5156v7.1562h-5.3125zm5.3125 3.8438v5.7656h2.9531c1.0312 0 1.8203-0.25 2.375-0.75 0.5625-0.50781 0.84375-1.2227 0.84375-2.1406 0-0.91406-0.28125-1.625-0.84375-2.125-0.55469-0.5-1.3438-0.75-2.375-0.75z"/>
  </symbol>
  <symbol id="l" overflow="visible">
   <path d="m14.875-14.984v4.0312c-0.67969-0.45703-1.3555-0.79688-2.0312-1.0156-0.67969-0.21875-1.375-0.32812-2.0938-0.32812-1.3867 0-2.4648 0.40234-3.2344 1.2031-0.77344 0.80469-1.1562 1.9297-1.1562 3.375 0 1.4492 0.38281 2.5742 1.1562 3.375 0.76953 0.80469 1.8477 1.2031 3.2344 1.2031 0.76953 0 1.5-0.11328 2.1875-0.34375 0.69531-0.22656 1.3438-0.56641 1.9375-1.0156v4.0469c-0.77344 0.28125-1.5586 0.49219-2.3594 0.64062-0.79297 0.14453-1.5898 0.21875-2.3906 0.21875-2.793 0-4.9766-0.71094-6.5469-2.1406-1.5742-1.4375-2.3594-3.4297-2.3594-5.9844 0-2.5508 0.78516-4.5391 2.3594-5.9688 1.5703-1.4375 3.7539-2.1562 6.5469-2.1562 0.8125 0 1.6094 0.074219 2.3906 0.21875 0.78906 0.14844 1.5781 0.35938 2.3594 0.64062z"/>
  </symbol>
 </defs>
 <g>
  <path d="m289.3 360.89c-18.156 31.055-37.332 56.566-43.953 60.016-4.75-2.2617-15.781-15.953-28.281-34.844-3.7344-5.6562-7.6367-11.766-11.312-18.156-21.324-35.184-42.707-79.191-42.707-104.7v-0.003906c-0.097656-17.613 5.3281-34.812 15.516-49.18 10.188-14.367 24.625-25.18 41.277-30.918-0.35156 3.2891-0.50391 6.5938-0.45312 9.9023 0.078125 7.2656 0.89062 14.504 2.4297 21.605-8.9023 4.5781-16.367 11.531-21.566 20.086-5.2031 8.5547-7.9375 18.379-7.9023 28.391-0.15234 14.199 5.3516 27.871 15.297 38.004 9.9414 10.137 23.508 15.898 37.707 16.016 5.7695 0.027343 11.504-0.90625 16.969-2.7695 2.7148 4.9766 5.3164 9.6719 7.75 13.859 2.4336 4.1875 4.0156 7.0703 5.6562 10.012l3.5625 6.8438c2.7734 4.1875 6.1094 9.6719 10.012 15.84z"/>
  <path d="m466.36 179.82c-0.39453-3.4492-0.90625-6.7891-1.5273-10.125-6.4141-36.262-29.586-67.363-62.496-83.883-32.914-16.523-71.695-16.523-104.61 0-32.914 16.52-56.086 47.621-62.5 83.883-0.56641 3.3359-1.1328 6.6758-1.5273 10.125-0.45312 4.3789-0.67969 8.7812-0.67578 13.184 0.046874 5.6992 0.63672 11.379 1.7539 16.969 0.62109 3.0547 1.3594 6.3359 2.1484 9.6172v-0.003906c8.043 27.703 19.082 54.449 32.922 79.758 1.4727 2.8867 3.0547 5.6562 4.582 8.6562 3.7344 6.7891 7.4102 13.52 11.312 20.082 3.9023 6.5625 6.7305 11.312 10.07 16.969l1.3008 2.0938 5.6562 9.4453c20.535 32.188 39.598 56.566 47.121 60.016 7.5234-3.5625 26.473-27.832 47.008-59.961 1.9609-3.0938 3.8477-6.2617 5.6562-9.5039 0.45312-0.67969 0.84766-1.4141 1.3594-2.0938 3.2812-5.6562 6.7305-11.312 10.012-16.969s7.5781-13.238 11.312-19.969c1.582-2.8281 3.1094-5.7148 4.582-8.6562l-0.007812 0.003906c13.855-25.34 24.895-52.125 32.922-79.871 0.84766-3.2812 1.582-6.5039 2.207-9.5586 1.1133-5.5898 1.6992-11.27 1.7539-16.969 0.11719-4.4141 0.003907-8.832-0.33984-13.238zm-47.855 43.84c-3.3789 7.8008-8.0234 14.984-13.746 21.27-8.7617 9.7188-19.945 16.938-32.41 20.93-3.0938 1.0039-6.2461 1.7969-9.4453 2.375-4.3164 0.76953-8.6875 1.1641-13.066 1.1875-4.2305 0.003906-8.4531-0.375-12.617-1.1328-3.2344-0.53125-6.4258-1.2891-9.5586-2.2617-12.496-3.9844-23.719-11.207-32.523-20.93-5.8867-6.3828-10.633-13.73-14.031-21.719-4.1484-9.6914-6.2852-20.121-6.2773-30.66 0-2.7227 0.17188-5.4414 0.50781-8.1445 0.23828-3.3203 0.76953-6.6133 1.5859-9.8438 4.8555-22.371 19.711-41.277 40.301-51.281 20.59-10.008 44.633-10.008 65.223 0 20.59 10.004 35.449 28.91 40.301 51.281 0.74219 3.25 1.3086 6.5352 1.6992 9.8438 0 2.6602 0.45312 5.3164 0.45312 8.0312 0.03125 10.684-2.1445 21.254-6.3945 31.055z"/>
  <path d="m537.18 263.26c0 24.777-20.363 67.539-41.238 102.27-3.8477 6.4492-7.75 12.613-11.312 18.383-13.293 19.969-25 34.676-29.98 37.051-6.6172-3.168-25.793-28.961-43.953-60.016 3.9023-6.1641 7.2422-11.652 9.6719-15.727l4.1289-6.957c1.7344-2.9414 3.6211-6.2773 5.6562-10.012 2.375-4.1875 4.9219-8.8242 7.6367-13.859h0.003906c5.3438 1.8828 10.969 2.8203 16.633 2.7734 14.164-0.16406 27.688-5.9453 37.594-16.074 9.9062-10.133 15.387-23.777 15.238-37.945 0.003906-9.9219-2.6992-19.656-7.8242-28.148-5.125-8.4961-12.473-15.426-21.25-20.047 1.5664-7.1367 2.4219-14.414 2.543-21.723 0.003906-3.3047-0.16797-6.6094-0.50781-9.8984 16.66 5.6914 31.117 16.465 41.336 30.805 10.219 14.336 15.684 31.516 15.625 49.125z"/>
  <path d="m521.39 486.46h-340.47l32.016-89.262c11.312 16.629 24.945 33.488 32.414 33.488 12.273 0 40.559-45.254 49.836-60.75 17.594 26.98 42.254 60.75 54.867 60.75 12.613 0 37.164-33.938 54.754-60.695 9.4453 15.555 37.617 60.695 49.891 60.695 7.75 0 22.062-18.27 33.938-35.578z"/>
  <use x="70" y="644.847656" xlink:href="#v"/>
  <use x="90.757812" y="644.847656" xlink:href="#d"/>
  <use x="104.703125" y="644.847656" xlink:href="#a"/>
  <use x="123.886719" y="644.847656" xlink:href="#b"/>
  <use x="142.972656" y="644.847656" xlink:href="#c"/>
  <use x="156.492188" y="644.847656" xlink:href="#a"/>
  <use x="175.675781" y="644.847656" xlink:href="#k"/>
  <use x="205.765625" y="644.847656" xlink:href="#j"/>
  <use x="226.011719" y="644.847656" xlink:href="#g"/>
  <use x="254.292969" y="644.847656" xlink:href="#f"/>
  <use x="277.964844" y="644.847656" xlink:href="#b"/>
  <use x="297.050781" y="644.847656" xlink:href="#i"/>
  <use x="306.746094" y="644.847656" xlink:href="#b"/>
  <use x="325.828125" y="644.847656" xlink:href="#g"/>
  <use x="344.265625" y="644.847656" xlink:href="#b"/>
  <use x="373.199219" y="644.847656" xlink:href="#u"/>
  <use x="396.675781" y="644.847656" xlink:href="#a"/>
  <use x="415.855469" y="644.847656" xlink:href="#t"/>
  <use x="432.691406" y="644.847656" xlink:href="#s"/>
  <use x="442.386719" y="644.847656" xlink:href="#r"/>
  <use x="462.632813" y="644.847656" xlink:href="#h"/>
  <use x="70" y="673.132812" xlink:href="#q"/>
  <use x="82.304688" y="673.132812" xlink:href="#d"/>
  <use x="96.253906" y="673.132812" xlink:href="#e"/>
  <use x="115.683594" y="673.132812" xlink:href="#p"/>
  <use x="155" y="673.132812" xlink:href="#c"/>
  <use x="168.519531" y="673.132812" xlink:href="#o"/>
  <use x="188.65625" y="673.132812" xlink:href="#a"/>
  <use x="217.683594" y="673.132812" xlink:href="#f"/>
  <use x="241.355469" y="673.132812" xlink:href="#e"/>
  <use x="260.785156" y="673.132812" xlink:href="#n"/>
  <use x="280.917969" y="673.132812" xlink:href="#h"/>
  <use x="310.902344" y="673.132812" xlink:href="#m"/>
  <use x="331.628906" y="673.132812" xlink:href="#d"/>
  <use x="345.578125" y="673.132812" xlink:href="#e"/>
  <use x="365.007813" y="673.132812" xlink:href="#i"/>
  <use x="374.703125" y="673.132812" xlink:href="#a"/>
  <use x="393.886719" y="673.132812" xlink:href="#l"/>
  <use x="410.652344" y="673.132812" xlink:href="#c"/>
 </g>
</svg>
