<?xml version="1.0" encoding="utf-8"?>
<!-- Generator: Adobe Illustrator 26.2.1, SVG Export Plug-In . SVG Version: 6.00 Build 0)  -->
<svg version="1.1" id="designs" xmlns="http://www.w3.org/2000/svg" xmlns:xlink="http://www.w3.org/1999/xlink" x="0px" y="0px"
	 viewBox="0 0 32 32" style="enable-background:new 0 0 32 32;" xml:space="preserve">
<style type="text/css">
	.st0{fill:#D8C99B;}
	.st1{fill:#4B8F8C;}
</style>
<path class="st0" d="M20.6,21.2C20.6,21.2,20.6,21.2,20.6,21.2C20.6,21.2,20.6,21.3,20.6,21.2C20.6,21.3,20.6,21.3,20.6,21.2z
	 M20.7,21.4L20.7,21.4C20.7,21.4,20.7,21.4,20.7,21.4L20.7,21.4L20.7,21.4z M19.3,18.3C19.3,18.3,19.3,18.3,19.3,18.3
	C19.3,18.3,19.3,18.3,19.3,18.3C19.3,18.3,19.3,18.3,19.3,18.3z M24.4,29.9c0,0.4-0.4,0.8-0.8,0.8c-1.4-0.1-2.7,0-4.1,0
	c-0.7,0-1.4,0-2.1,0c-0.7,0-1.3,0.1-2,0.1c-0.8,0-1.6,0-2.4,0c-0.8,0-1.6-0.1-2.4-0.1c-1.7,0-3.4,0.1-5.2,0.1
	c-0.3,0-0.6-0.2-0.8-0.5c-0.1-0.1-0.2-0.2-0.3-0.4c-0.1-0.2,0-0.4,0.1-0.6c0.1-0.2,0.1-0.3,0.2-0.5c0.3-0.7,0.5-1.4,0.8-2.1
	C5.7,26,6,25.3,6.3,24.6c0.3-0.8,0.6-1.5,0.8-2.3c0.5-1.5,1-3.1,1.5-4.6c0.5-1.5,1.1-3.1,1.7-4.6c0.3-0.8,0.6-1.6,0.9-2.4
	c0.3-0.8,0.7-1.5,1-2.3c0.2-0.6,0.4-1.1,0.7-1.7c-0.2-0.1-0.3-0.2-0.5-0.3c-0.2-0.1-0.3-0.2-0.4-0.4c-0.1-0.1-0.1-0.2-0.2-0.3
	c-0.1-0.1-0.1-0.2-0.2-0.2c-0.2-0.4-0.4-0.9-0.5-1.3C11.1,4,11,3.7,11,3.5c0-0.4,0.1-0.8,0.3-1.1c0.1-0.2,0.2-0.4,0.4-0.6
	c0.2-0.3,0.5-0.4,0.8-0.6c0.3-0.1,0.6-0.2,0.9-0.3c0.2,0,0.3-0.1,0.5-0.1c0,0,0,0,0.1,0c0.2,0,0.3,0,0.5,0c0.1,0,0.2,0,0.3,0.1
	C14.9,1,15,1.1,15.2,1.2c0.1,0.1,0.2,0.2,0.3,0.3c0.1,0.1,0.1,0.1,0.2,0.2c0.2,0.2,0.3,0.4,0.5,0.6c0.3,0.5,0.5,1.1,0.5,1.7
	c0,0.6-0.2,1.2-0.5,1.8c-0.3,0.4-0.6,0.7-1,0.8c-0.1,0-0.1,0-0.2,0.1c0.2,0.6,0.4,1.3,0.6,1.9c0.3,0.8,0.5,1.7,0.8,2.5
	c0.3,0.8,0.6,1.6,0.9,2.4c0.3,0.8,0.6,1.6,0.9,2.4c0.2,0.5,0.4,0.9,0.5,1.4c0.1,0.1,0.2,0.2,0.2,0.3c0,0.1,0,0.2,0,0.3
	c0,0.1,0.1,0.2,0.1,0.2c0,0,0,0,0,0c0,0,0,0,0,0.1c0,0,0,0.1,0,0.1c0,0,0,0.1,0,0.1c0,0,0-0.1,0-0.1c0,0,0,0.1,0,0.1
	c0,0,0,0.1,0,0.1c0,0,0-0.1,0-0.1c0.2,0.5,0.4,0.9,0.6,1.4c0.2,0.5,0.4,0.9,0.6,1.4c0,0,0,0,0,0c0,0,0,0.1,0,0.1c0,0,0,0.1,0,0.1
	c0,0,0,0,0,0c0,0,0,0,0,0c0,0,0,0,0,0c0,0,0,0,0,0c0,0,0,0.1,0.1,0.1c0,0,0,0,0-0.1c0,0,0,0,0,0.1c0,0,0,0,0,0v0c0,0,0,0,0,0
	c0,0,0,0.1,0,0.1c0.1,0.1,0.1,0.3,0.2,0.4c0,0.1,0.1,0.2,0.1,0.3c0.1,0.1,0.1,0.3,0.2,0.4c0.3,0.7,0.6,1.5,0.9,2.3
	c0.6,1.5,1.3,3,2.1,4.4c0,0.1,0.1,0.2,0.1,0.3C24.3,29.7,24.4,29.8,24.4,29.9z M20.7,21.4c0,0,0,0.1,0,0.1c0,0,0,0,0,0
	C20.7,21.5,20.7,21.4,20.7,21.4z M13,3.5c0,0.1,0,0.1,0,0.2c0,0.2,0.1,0.4,0.2,0.6c0.1,0.2,0.2,0.3,0.3,0.5l0,0
	c0.1,0,0.1,0.1,0.2,0.1c0.1,0,0.1-0.1,0.2-0.1c0.2,0,0.4-0.1,0.6-0.2c0,0,0.1,0,0.1-0.1c0,0,0.1-0.1,0.1-0.1c0,0,0-0.1,0.1-0.1
	c0-0.1,0.1-0.2,0.1-0.3c0-0.1,0-0.2,0-0.3c0-0.2-0.1-0.3-0.1-0.4c0-0.1-0.1-0.2-0.2-0.3c-0.1-0.1-0.2-0.2-0.3-0.3c0,0,0,0-0.1,0
	c0,0-0.1,0-0.1,0c-0.1,0-0.2,0-0.3,0c-0.2,0-0.3,0.1-0.5,0.1c-0.1,0-0.1,0.1-0.2,0.1c0,0,0,0,0,0c-0.1,0.1-0.1,0.2-0.1,0.3
	C13,3.3,13,3.4,13,3.5z M12.4,11.7c-0.1,0.1-0.1,0.3-0.2,0.4c1.1,0.8,2.2,1.7,3.4,2.6c0.3,0.2,0.6,0.4,0.8,0.6
	c-0.5-1.3-0.9-2.5-1.4-3.7c-0.3-0.8-0.6-1.6-0.9-2.4C14.1,9,14,8.8,13.9,8.5c-0.1,0.2-0.2,0.4-0.2,0.5c-0.3,0.7-0.7,1.4-1,2.1
	C12.6,11.4,12.5,11.6,12.4,11.7z M10.6,16.5c-0.1,0.2-0.2,0.4-0.2,0.7c0.1,0,0.2,0.1,0.4,0.2c0.4,0.3,0.7,0.6,1.1,0.9
	c0.3,0.3,0.7,0.5,1,0.8c0.4,0.3,0.8,0.6,1.2,0.9c0.7,0.5,1.3,1,2,1.5c0.7,0.5,1.3,1,2,1.4c0.7,0.5,1.3,1,2,1.5
	c0.1,0,0.1,0.1,0.2,0.1c-0.1-0.2-0.2-0.5-0.3-0.7c-0.2-0.5-0.4-1-0.6-1.5c0,0,0-0.1-0.1-0.1c-0.1-0.2-0.2-0.5-0.3-0.7
	c-0.3-0.8-0.7-1.6-1-2.3c-0.1-0.3-0.2-0.6-0.4-1c-0.9-0.7-1.8-1.4-2.7-2c-0.5-0.4-1.1-0.8-1.6-1.2c-0.5-0.4-1-0.7-1.5-1.1
	c0,0.1-0.1,0.2-0.1,0.3C11.3,14.9,10.9,15.7,10.6,16.5z M15,29.3c-0.1,0-0.1-0.1-0.2-0.1c-0.7-0.5-1.3-1-2-1.4
	c-0.7-0.5-1.4-1-2.1-1.6c-0.6-0.5-1.3-1-1.9-1.5c-0.3-0.2-0.5-0.4-0.8-0.6c-0.2,0.5-0.4,1-0.5,1.5c-0.4,1.2-0.9,2.4-1.3,3.6
	c0.5,0,1,0,1.5,0c0.7,0,1.5,0,2.2,0c0.3,0,0.7,0,1,0c0.3,0,0.7,0,1,0.1c0.7,0,1.4,0.1,2,0.1C14.3,29.3,14.7,29.3,15,29.3z
	 M22.2,29.2c-0.1-0.2-0.2-0.4-0.3-0.7c-0.2-0.4-0.4-0.8-0.6-1.3c-0.1,0-0.3-0.1-0.4-0.2c-0.5-0.4-1-0.8-1.5-1.3
	c-0.3-0.2-0.6-0.5-0.9-0.7c-0.7-0.5-1.3-0.9-2-1.4c-0.7-0.5-1.4-1-2-1.5c-1.3-1-2.6-1.9-3.9-2.9c-0.2-0.2-0.5-0.4-0.7-0.6
	c-0.3,0.8-0.5,1.5-0.7,2.3c-0.1,0.5-0.3,0.9-0.5,1.4c0.1,0,0.2,0.1,0.2,0.2c0.6,0.5,1.2,1,1.8,1.5c0.5,0.5,1.1,0.9,1.7,1.4
	c0.9,0.7,1.8,1.3,2.7,2c0.4,0.3,0.9,0.6,1.3,1c0.2,0.1,0.4,0.2,0.6,0.4c0.2,0.1,0.5,0.3,0.7,0.5c0.4,0,0.7,0,1.1,0
	c0.8,0,1.7,0,2.5,0C21.6,29.2,21.9,29.2,22.2,29.2z M10.6,19.3C10.6,19.3,10.6,19.3,10.6,19.3C10.6,19.3,10.6,19.3,10.6,19.3
	C10.6,19.3,10.6,19.3,10.6,19.3z"/>
<path class="st1" d="M23.6,21.2C23.6,21.2,23.6,21.2,23.6,21.2C23.6,21.2,23.6,21.2,23.6,21.2C23.6,21.2,23.6,21.2,23.6,21.2z
	 M23.6,21.3L23.6,21.3C23.6,21.3,23.6,21.3,23.6,21.3L23.6,21.3L23.6,21.3z M22.3,18.2C22.3,18.2,22.3,18.2,22.3,18.2
	C22.3,18.2,22.3,18.2,22.3,18.2C22.3,18.2,22.3,18.2,22.3,18.2z M27.4,29.9c0,0.4-0.4,0.8-0.8,0.8c-1.4-0.1-2.7,0-4.1,0
	c-0.7,0-1.4,0-2.1,0c-0.7,0-1.3,0.1-2,0.1c-0.8,0-1.6,0-2.4,0c-0.8,0-1.6-0.1-2.4-0.1c-1.7,0-3.4,0.1-5.2,0.1
	c-0.3,0-0.6-0.2-0.8-0.5c-0.1-0.1-0.2-0.2-0.3-0.4c-0.1-0.2,0-0.4,0.1-0.6c0.1-0.2,0.1-0.3,0.2-0.5c0.3-0.7,0.5-1.4,0.8-2.1
	C8.7,26,9,25.2,9.3,24.5c0.3-0.8,0.6-1.5,0.8-2.3c0.5-1.5,1-3.1,1.5-4.6c0.5-1.5,1.1-3.1,1.7-4.6c0.3-0.8,0.6-1.6,0.9-2.4
	c0.3-0.8,0.7-1.5,1-2.3c0.2-0.6,0.4-1.1,0.7-1.7c-0.2-0.1-0.3-0.2-0.5-0.3C15.2,6.3,15.1,6.2,15,6c-0.1-0.1-0.1-0.2-0.2-0.3
	c-0.1-0.1-0.1-0.2-0.2-0.2c-0.2-0.4-0.4-0.9-0.5-1.3C14,3.9,14,3.7,14,3.5c0-0.4,0.1-0.8,0.3-1.1c0.1-0.2,0.2-0.4,0.4-0.6
	c0.2-0.3,0.5-0.4,0.8-0.6C15.7,1,16,0.9,16.3,0.9c0.2,0,0.3-0.1,0.5-0.1c0,0,0,0,0.1,0c0.2,0,0.3,0,0.5,0c0.1,0,0.2,0,0.3,0.1
	C17.8,1,18,1,18.2,1.1c0.1,0.1,0.2,0.2,0.3,0.3c0.1,0.1,0.1,0.1,0.2,0.2c0.2,0.2,0.3,0.4,0.5,0.6c0.3,0.5,0.5,1.1,0.5,1.7
	c0,0.6-0.2,1.2-0.5,1.8c-0.3,0.4-0.6,0.7-1,0.8c-0.1,0-0.1,0-0.2,0.1c0.2,0.6,0.4,1.3,0.6,1.9c0.3,0.8,0.5,1.7,0.8,2.5
	c0.3,0.8,0.6,1.6,0.9,2.4c0.3,0.8,0.6,1.6,0.9,2.4c0.2,0.5,0.4,1,0.5,1.4c0.1,0.1,0.2,0.2,0.2,0.3c0,0.1,0,0.2,0,0.3
	c0,0.1,0.1,0.2,0.1,0.2c0,0,0,0,0,0c0,0,0,0,0,0.1c0,0,0,0.1,0,0.1c0,0,0,0.1,0,0.1c0,0,0-0.1,0-0.1c0,0,0,0.1,0,0.1
	c0,0,0,0.1,0,0.1c0,0,0-0.1,0-0.1c0.2,0.5,0.4,0.9,0.6,1.4c0.2,0.5,0.4,0.9,0.6,1.4c0,0,0,0,0,0c0,0,0,0.1,0,0.1c0,0,0,0.1,0,0.1
	c0,0,0,0,0,0c0,0,0,0,0,0c0,0,0,0,0,0c0,0,0,0,0,0c0,0,0,0.1,0.1,0.1c0,0,0,0,0-0.1c0,0,0,0,0,0.1c0,0,0,0,0,0v0c0,0,0,0,0,0
	c0,0,0,0.1,0,0.1c0.1,0.1,0.1,0.3,0.2,0.4c0,0.1,0.1,0.2,0.1,0.3c0.1,0.1,0.1,0.3,0.2,0.4c0.3,0.7,0.6,1.5,0.9,2.3
	c0.6,1.5,1.3,3,2.1,4.4c0,0.1,0.1,0.2,0.1,0.3C27.3,29.6,27.4,29.7,27.4,29.9z M23.6,21.3c0,0,0,0.1,0,0.1c0,0,0,0,0,0
	C23.7,21.4,23.7,21.4,23.6,21.3z M16,3.4c0,0.1,0,0.1,0,0.2c0,0.2,0.1,0.4,0.2,0.6c0.1,0.2,0.2,0.3,0.3,0.5l0,0
	c0.1,0,0.1,0.1,0.2,0.1c0.1,0,0.1-0.1,0.2-0.1c0.2,0,0.4-0.1,0.6-0.2c0,0,0.1,0,0.1-0.1c0,0,0.1-0.1,0.1-0.1c0,0,0-0.1,0.1-0.1
	c0-0.1,0.1-0.2,0.1-0.3c0-0.1,0-0.2,0-0.3c0-0.2-0.1-0.3-0.1-0.4c0-0.1-0.1-0.2-0.2-0.3c-0.1-0.1-0.2-0.2-0.3-0.3c0,0,0,0-0.1,0
	c0,0-0.1,0-0.1,0c-0.1,0-0.2,0-0.3,0c-0.2,0-0.3,0.1-0.5,0.1c-0.1,0-0.1,0.1-0.2,0.1c0,0,0,0,0,0C16.1,3,16.1,3.1,16,3.2
	C16,3.2,16,3.3,16,3.4z M15.4,11.7c-0.1,0.1-0.1,0.3-0.2,0.4c1.1,0.8,2.2,1.7,3.4,2.6c0.3,0.2,0.6,0.4,0.8,0.6
	C19,14,18.5,12.8,18,11.6c-0.3-0.8-0.6-1.6-0.9-2.4c-0.1-0.2-0.2-0.5-0.3-0.7c-0.1,0.2-0.2,0.4-0.2,0.5c-0.3,0.7-0.7,1.4-1,2.1
	C15.6,11.3,15.5,11.5,15.4,11.7z M13.6,16.4c-0.1,0.2-0.2,0.4-0.2,0.7c0.1,0,0.2,0.1,0.4,0.2c0.4,0.3,0.7,0.6,1.1,0.9
	c0.3,0.3,0.7,0.5,1,0.8c0.4,0.3,0.8,0.6,1.2,0.9c0.7,0.5,1.3,1,2,1.5c0.7,0.5,1.3,1,2,1.4c0.7,0.5,1.3,1,2,1.5
	c0.1,0,0.1,0.1,0.2,0.1c-0.1-0.2-0.2-0.5-0.3-0.7c-0.2-0.5-0.4-1-0.6-1.5c0,0,0-0.1-0.1-0.1c-0.1-0.2-0.2-0.5-0.3-0.7
	c-0.3-0.8-0.7-1.6-1-2.3c-0.1-0.3-0.2-0.6-0.4-1c-0.9-0.7-1.8-1.4-2.7-2c-0.5-0.4-1.1-0.8-1.6-1.2c-0.5-0.4-1-0.7-1.5-1.1
	c0,0.1-0.1,0.2-0.1,0.3C14.2,14.8,13.9,15.6,13.6,16.4z M18,29.2c-0.1,0-0.1-0.1-0.2-0.1c-0.7-0.5-1.3-1-2-1.4
	c-0.7-0.5-1.4-1-2.1-1.6c-0.6-0.5-1.3-1-1.9-1.5c-0.3-0.2-0.5-0.4-0.8-0.6c-0.2,0.5-0.4,1-0.5,1.5c-0.4,1.2-0.9,2.4-1.3,3.6
	c0.5,0,1,0,1.5,0c0.7,0,1.5,0,2.2,0c0.3,0,0.7,0,1,0c0.3,0,0.7,0,1,0.1c0.7,0,1.4,0.1,2,0.1C17.3,29.2,17.6,29.2,18,29.2z
	 M25.2,29.1c-0.1-0.2-0.2-0.4-0.3-0.7c-0.2-0.4-0.4-0.8-0.6-1.3c-0.1,0-0.3-0.1-0.4-0.2c-0.5-0.4-1-0.8-1.5-1.3
	c-0.3-0.2-0.6-0.5-0.9-0.7c-0.7-0.5-1.3-0.9-2-1.4c-0.7-0.5-1.4-1-2-1.5c-1.3-1-2.6-1.9-3.9-2.9c-0.2-0.2-0.5-0.4-0.7-0.6
	c-0.3,0.8-0.5,1.5-0.7,2.3c-0.1,0.5-0.3,0.9-0.5,1.4c0.1,0,0.2,0.1,0.2,0.2c0.6,0.5,1.2,1,1.8,1.5c0.5,0.5,1.1,0.9,1.7,1.4
	c0.9,0.7,1.8,1.3,2.7,2c0.4,0.3,0.9,0.6,1.3,1c0.2,0.1,0.4,0.2,0.6,0.4c0.2,0.1,0.5,0.3,0.7,0.5c0.4,0,0.7,0,1.1,0
	c0.8,0,1.7,0,2.5,0C24.6,29.1,24.9,29.1,25.2,29.1z M13.6,19.2C13.6,19.2,13.6,19.2,13.6,19.2C13.6,19.2,13.5,19.2,13.6,19.2
	C13.6,19.2,13.6,19.2,13.6,19.2z"/>
<path d="M22.2,21.4C22.2,21.4,22.2,21.4,22.2,21.4C22.2,21.4,22.2,21.4,22.2,21.4C22.2,21.4,22.2,21.4,22.2,21.4z M22.3,21.5
	L22.3,21.5C22.3,21.5,22.3,21.5,22.3,21.5L22.3,21.5L22.3,21.5z M20.9,18.4C20.9,18.4,20.9,18.4,20.9,18.4
	C20.9,18.4,20.9,18.4,20.9,18.4C20.9,18.4,20.9,18.4,20.9,18.4z M26,30.1c0,0.4-0.4,0.8-0.8,0.8c-1.4-0.1-2.7,0-4.1,0
	c-0.7,0-1.4,0-2.1,0c-0.7,0-1.3,0.1-2,0.1c-0.8,0-1.6,0-2.4,0c-0.8,0-1.6-0.1-2.4-0.1c-1.7,0-3.4,0.1-5.2,0.1
	c-0.3,0-0.6-0.2-0.8-0.5c-0.1-0.1-0.2-0.2-0.3-0.4c-0.1-0.2,0-0.4,0.1-0.6c0.1-0.2,0.1-0.3,0.2-0.5c0.3-0.7,0.5-1.4,0.8-2.1
	c0.3-0.7,0.6-1.5,0.9-2.2c0.3-0.8,0.6-1.5,0.8-2.3c0.5-1.5,1-3.1,1.5-4.6c0.5-1.5,1.1-3.1,1.7-4.6c0.3-0.8,0.6-1.6,0.9-2.4
	c0.3-0.8,0.7-1.5,1-2.3c0.2-0.6,0.4-1.1,0.7-1.7c-0.2-0.1-0.3-0.2-0.5-0.3c-0.2-0.1-0.3-0.2-0.4-0.4c-0.1-0.1-0.1-0.2-0.2-0.3
	c-0.1-0.1-0.1-0.2-0.2-0.2c-0.2-0.4-0.4-0.9-0.5-1.3c0-0.2-0.1-0.5-0.1-0.7c0-0.4,0.1-0.8,0.3-1.1c0.1-0.2,0.2-0.4,0.4-0.6
	c0.2-0.3,0.5-0.4,0.8-0.6c0.3-0.1,0.6-0.2,0.9-0.3C15.2,1,15.3,1,15.5,1c0,0,0,0,0.1,0c0.2,0,0.3,0,0.5,0c0.1,0,0.2,0,0.3,0.1
	c0.2,0.1,0.3,0.1,0.5,0.2c0.1,0.1,0.2,0.2,0.3,0.3c0.1,0.1,0.1,0.1,0.2,0.2c0.2,0.2,0.3,0.4,0.5,0.6c0.3,0.5,0.5,1.1,0.5,1.7
	c0,0.6-0.2,1.2-0.5,1.8c-0.3,0.4-0.6,0.7-1,0.8c-0.1,0-0.1,0-0.2,0.1c0.2,0.6,0.4,1.3,0.6,1.9c0.3,0.8,0.5,1.7,0.8,2.5
	c0.3,0.8,0.6,1.6,0.9,2.4c0.3,0.8,0.6,1.6,0.9,2.4c0.2,0.5,0.4,0.9,0.5,1.4c0.1,0.1,0.2,0.2,0.2,0.3c0,0.1,0,0.2,0,0.3
	c0,0.1,0.1,0.2,0.1,0.2c0,0,0,0,0,0c0,0,0,0,0,0.1c0,0,0,0.1,0,0.1c0,0,0,0.1,0,0.1c0,0,0-0.1,0-0.1c0,0,0,0.1,0,0.1
	c0,0,0,0.1,0,0.1c0,0,0-0.1,0-0.1c0.2,0.5,0.4,0.9,0.6,1.4c0.2,0.5,0.4,0.9,0.6,1.4c0,0,0,0,0,0c0,0,0,0.1,0,0.1c0,0,0,0.1,0,0.1
	c0,0,0,0,0,0c0,0,0,0,0,0c0,0,0,0,0,0c0,0,0,0,0,0c0,0,0,0.1,0.1,0.1c0,0,0,0,0-0.1c0,0,0,0,0,0.1c0,0,0,0,0,0v0c0,0,0,0,0,0
	c0,0,0,0.1,0,0.1c0.1,0.1,0.1,0.3,0.2,0.4c0,0.1,0.1,0.2,0.1,0.3c0.1,0.1,0.1,0.3,0.2,0.4c0.3,0.7,0.6,1.5,0.9,2.3
	c0.6,1.5,1.3,3,2.1,4.4c0,0.1,0.1,0.2,0.1,0.3C26,29.8,26,30,26,30.1z M22.3,21.5c0,0,0,0.1,0,0.1c0,0,0,0,0,0
	C22.3,21.6,22.3,21.6,22.3,21.5z M14.6,3.6c0,0.1,0,0.1,0,0.2c0,0.2,0.1,0.4,0.2,0.6C14.9,4.6,15,4.8,15.1,5l0,0
	c0.1,0,0.1,0.1,0.2,0.1C15.3,5,15.4,5,15.5,5c0.2,0,0.4-0.1,0.6-0.2c0,0,0.1,0,0.1-0.1c0,0,0.1-0.1,0.1-0.1c0,0,0-0.1,0.1-0.1
	c0-0.1,0.1-0.2,0.1-0.3c0-0.1,0-0.2,0-0.3c0-0.2-0.1-0.3-0.1-0.4c0-0.1-0.1-0.2-0.2-0.3C16.1,3.1,16,3,15.9,2.9c0,0,0,0-0.1,0
	c0,0-0.1,0-0.1,0c-0.1,0-0.2,0-0.3,0C15.3,2.9,15.2,3,15,3c-0.1,0-0.1,0.1-0.2,0.1c0,0,0,0,0,0c-0.1,0.1-0.1,0.2-0.1,0.3
	C14.7,3.5,14.6,3.5,14.6,3.6z M14.1,11.9C14,12,14,12.1,13.9,12.3c1.1,0.8,2.2,1.7,3.4,2.6c0.3,0.2,0.6,0.4,0.8,0.6
	c-0.5-1.3-0.9-2.5-1.4-3.7c-0.3-0.8-0.6-1.6-0.9-2.4c-0.1-0.2-0.2-0.5-0.3-0.7c-0.1,0.2-0.2,0.4-0.2,0.5c-0.3,0.7-0.7,1.4-1,2.1
	C14.2,11.5,14.1,11.7,14.1,11.9z M12.3,16.6c-0.1,0.2-0.2,0.4-0.2,0.7c0.1,0,0.2,0.1,0.4,0.2c0.4,0.3,0.7,0.6,1.1,0.9
	c0.3,0.3,0.7,0.5,1,0.8c0.4,0.3,0.8,0.6,1.2,0.9c0.7,0.5,1.3,1,2,1.5c0.7,0.5,1.3,1,2,1.4c0.7,0.5,1.3,1,2,1.5
	c0.1,0,0.1,0.1,0.2,0.1c-0.1-0.2-0.2-0.5-0.3-0.7c-0.2-0.5-0.4-1-0.6-1.5c0,0,0-0.1-0.1-0.1c-0.1-0.2-0.2-0.5-0.3-0.7
	c-0.3-0.8-0.7-1.6-1-2.3c-0.1-0.3-0.2-0.6-0.4-1c-0.9-0.7-1.8-1.4-2.7-2c-0.5-0.4-1.1-0.8-1.6-1.2c-0.5-0.4-1-0.7-1.5-1.1
	c0,0.1-0.1,0.2-0.1,0.3C12.9,15,12.6,15.8,12.3,16.6z M16.6,29.4c-0.1,0-0.1-0.1-0.2-0.1c-0.7-0.5-1.3-1-2-1.4
	c-0.7-0.5-1.4-1-2.1-1.6c-0.6-0.5-1.3-1-1.9-1.5c-0.3-0.2-0.5-0.4-0.8-0.6c-0.2,0.5-0.4,1-0.5,1.5c-0.4,1.2-0.9,2.4-1.3,3.6
	c0.5,0,1,0,1.5,0c0.7,0,1.5,0,2.2,0c0.3,0,0.7,0,1,0c0.3,0,0.7,0,1,0.1c0.7,0,1.4,0.1,2,0.1C15.9,29.4,16.3,29.4,16.6,29.4z
	 M23.8,29.3c-0.1-0.2-0.2-0.4-0.3-0.7c-0.2-0.4-0.4-0.8-0.6-1.3c-0.1,0-0.3-0.1-0.4-0.2c-0.5-0.4-1-0.8-1.5-1.3
	c-0.3-0.2-0.6-0.5-0.9-0.7c-0.7-0.5-1.3-0.9-2-1.4c-0.7-0.5-1.4-1-2-1.5c-1.3-1-2.6-1.9-3.9-2.9c-0.2-0.2-0.5-0.4-0.7-0.6
	c-0.3,0.8-0.5,1.5-0.7,2.3c-0.1,0.5-0.3,0.9-0.5,1.4c0.1,0,0.2,0.1,0.2,0.2c0.6,0.5,1.2,1,1.8,1.5c0.5,0.5,1.1,0.9,1.7,1.4
	c0.9,0.7,1.8,1.3,2.7,2c0.4,0.3,0.9,0.6,1.3,1c0.2,0.1,0.4,0.2,0.6,0.4c0.2,0.1,0.5,0.3,0.7,0.5c0.4,0,0.7,0,1.1,0
	c0.8,0,1.7,0,2.5,0C23.2,29.3,23.5,29.3,23.8,29.3z M12.2,19.4C12.2,19.4,12.2,19.4,12.2,19.4C12.2,19.4,12.2,19.4,12.2,19.4
	C12.2,19.4,12.2,19.4,12.2,19.4z"/>
</svg>
