<?xml version="1.0" encoding="UTF-8"?><svg xmlns="http://www.w3.org/2000/svg" viewBox="0 0 370.54 260.69"><defs><style>.e{fill:none;stroke:#1b2f33;stroke-linecap:round;stroke-miterlimit:10;stroke-width:30px;}.f{fill:#4b8f8c;}.g{fill:#d8c99b;}</style></defs><g id="a"/><g id="b"><g id="c"><g id="d"><circle class="f" cx="108.31" cy="110.23" r="75.24"/><path class="f" d="M33.07,260.69c0-41.55,33.68-75.24,75.24-75.24s75.24,33.68,75.24,75.24"/><circle class="g" cx="295.31" cy="110.23" r="75.24"/><path class="g" d="M220.07,260.69c0-41.55,33.68-75.24,75.24-75.24s75.24,33.68,75.24,75.24"/><circle class="e" cx="90.24" cy="90.24" r="75.24"/><path class="e" d="M15,240.69c0-41.55,33.68-75.24,75.24-75.24s75.24,33.68,75.24,75.24"/><circle class="e" cx="277.24" cy="90.24" r="75.24"/><path class="e" d="M202,240.69c0-41.55,33.68-75.24,75.24-75.24s75.24,33.68,75.24,75.24"/></g></g></g></svg>